<mxfile host="app.diagrams.net" modified="2022-04-20T13:00:58.623Z" agent="5.0 (Macintosh; Intel Mac OS X 10_15_7) AppleWebKit/537.36 (KHTML, like Gecko) Chrome/100.0.4896.127 Safari/537.36" etag="L_nAyQVHbpHnQFjeaeOo" version="17.4.3" type="github">
  <diagram id="z2n8yyMCExwt_IWl_RkL" name="Page-1">
    <mxGraphModel dx="1986" dy="715" grid="0" gridSize="10" guides="1" tooltips="1" connect="1" arrows="1" fold="1" page="0" pageScale="1" pageWidth="827" pageHeight="1169" math="0" shadow="0">
      <root>
        <mxCell id="0" />
        <mxCell id="1" parent="0" />
        <mxCell id="4Gwxn9bSezjb9jxa84t2-8" value="" style="edgeStyle=orthogonalEdgeStyle;rounded=0;orthogonalLoop=1;jettySize=auto;fontFamily=Lucida Console;labelBorderColor=none;fillColor=#d5e8d4;strokeColor=#000000;sketch=1;" edge="1" parent="1" source="4Gwxn9bSezjb9jxa84t2-1" target="4Gwxn9bSezjb9jxa84t2-7">
          <mxGeometry relative="1" as="geometry">
            <Array as="points">
              <mxPoint x="-100" y="230" />
              <mxPoint x="-100" y="230" />
            </Array>
          </mxGeometry>
        </mxCell>
        <mxCell id="4Gwxn9bSezjb9jxa84t2-1" value="FrameworkServlet&#xa;#initServletBean" style="shape=umlLifeline;perimeter=lifelinePerimeter;whiteSpace=wrap;container=1;collapsible=0;recursiveResize=0;outlineConnect=0;fillColor=#d5e8d4;strokeColor=#82b366;fontFamily=Lucida Console;labelBorderColor=none;sketch=1;" vertex="1" parent="1">
          <mxGeometry x="-279" y="104" width="134" height="330" as="geometry" />
        </mxCell>
        <mxCell id="4Gwxn9bSezjb9jxa84t2-2" value="HttpServletBean#init" style="shape=umlLifeline;perimeter=lifelinePerimeter;whiteSpace=wrap;container=1;collapsible=0;recursiveResize=0;outlineConnect=0;fillColor=#d5e8d4;strokeColor=#82b366;fontFamily=Lucida Console;labelBorderColor=none;sketch=1;" vertex="1" parent="1">
          <mxGeometry x="-497" y="108" width="134" height="323" as="geometry" />
        </mxCell>
        <mxCell id="4Gwxn9bSezjb9jxa84t2-6" value="initServletBean" style="verticalAlign=bottom;endArrow=block;rounded=0;fontFamily=Lucida Console;labelBorderColor=none;fillColor=#d5e8d4;strokeColor=#000000;sketch=1;" edge="1" parent="4Gwxn9bSezjb9jxa84t2-2" target="4Gwxn9bSezjb9jxa84t2-1">
          <mxGeometry width="80" relative="1" as="geometry">
            <mxPoint x="68" y="80" as="sourcePoint" />
            <mxPoint x="148" y="80" as="targetPoint" />
          </mxGeometry>
        </mxCell>
        <mxCell id="4Gwxn9bSezjb9jxa84t2-12" value="" style="edgeStyle=orthogonalEdgeStyle;rounded=0;orthogonalLoop=1;jettySize=auto;fontFamily=Lucida Console;labelBorderColor=none;fillColor=#d5e8d4;strokeColor=#000000;sketch=1;" edge="1" parent="1" source="4Gwxn9bSezjb9jxa84t2-7" target="4Gwxn9bSezjb9jxa84t2-11">
          <mxGeometry relative="1" as="geometry">
            <Array as="points">
              <mxPoint x="158" y="329" />
              <mxPoint x="158" y="329" />
            </Array>
          </mxGeometry>
        </mxCell>
        <mxCell id="4Gwxn9bSezjb9jxa84t2-13" value="onRefresh" style="edgeLabel;align=center;verticalAlign=middle;resizable=0;points=[];fontFamily=Lucida Console;labelBorderColor=none;" vertex="1" connectable="0" parent="4Gwxn9bSezjb9jxa84t2-12">
          <mxGeometry x="-0.1179" y="4" relative="1" as="geometry">
            <mxPoint x="17" y="-6" as="offset" />
          </mxGeometry>
        </mxCell>
        <mxCell id="4Gwxn9bSezjb9jxa84t2-7" value="FrameworkServlet" style="shape=umlLifeline;perimeter=lifelinePerimeter;whiteSpace=wrap;container=1;collapsible=0;recursiveResize=0;outlineConnect=0;fillColor=#d5e8d4;strokeColor=#82b366;fontFamily=Lucida Console;labelBorderColor=none;sketch=1;" vertex="1" parent="1">
          <mxGeometry x="-71" y="104" width="166" height="328" as="geometry" />
        </mxCell>
        <mxCell id="4Gwxn9bSezjb9jxa84t2-19" value="" style="html=1;points=[];perimeter=orthogonalPerimeter;labelBorderColor=none;sketch=1;fontFamily=Lucida Console;" vertex="1" parent="4Gwxn9bSezjb9jxa84t2-7">
          <mxGeometry x="78" y="125" width="10" height="125" as="geometry" />
        </mxCell>
        <mxCell id="4Gwxn9bSezjb9jxa84t2-17" value="" style="html=1;points=[];perimeter=orthogonalPerimeter;labelBorderColor=none;sketch=1;fontFamily=Lucida Console;" vertex="1" parent="4Gwxn9bSezjb9jxa84t2-7">
          <mxGeometry x="83" y="158" width="10" height="40" as="geometry" />
        </mxCell>
        <mxCell id="4Gwxn9bSezjb9jxa84t2-18" value="createWebApplicationContext" style="edgeStyle=orthogonalEdgeStyle;html=1;align=left;spacingLeft=2;endArrow=block;rounded=0;entryX=1;entryY=0;labelBorderColor=none;sketch=1;fontFamily=Lucida Console;strokeColor=#000000;" edge="1" target="4Gwxn9bSezjb9jxa84t2-17" parent="4Gwxn9bSezjb9jxa84t2-7">
          <mxGeometry x="0.1471" relative="1" as="geometry">
            <mxPoint x="81" y="138" as="sourcePoint" />
            <Array as="points">
              <mxPoint x="111" y="138" />
            </Array>
            <mxPoint as="offset" />
          </mxGeometry>
        </mxCell>
        <mxCell id="4Gwxn9bSezjb9jxa84t2-10" value="initWebApplicationContext" style="text;align=center;verticalAlign=middle;resizable=0;points=[];autosize=1;strokeColor=none;fillColor=none;fontFamily=Lucida Console;labelBorderColor=none;" vertex="1" parent="1">
          <mxGeometry x="-184" y="210" width="158" height="18" as="geometry" />
        </mxCell>
        <mxCell id="4Gwxn9bSezjb9jxa84t2-11" value="DispatcherServlet#onRefresh" style="shape=umlLifeline;perimeter=lifelinePerimeter;whiteSpace=wrap;container=1;collapsible=0;recursiveResize=0;outlineConnect=0;fillColor=#f0a30a;strokeColor=#BD7000;fontFamily=Lucida Console;labelBorderColor=none;sketch=1;fontColor=#000000;" vertex="1" parent="1">
          <mxGeometry x="161" y="104" width="166" height="326" as="geometry" />
        </mxCell>
      </root>
    </mxGraphModel>
  </diagram>
</mxfile>
